<mxfile host="app.diagrams.net" modified="2022-07-19T21:43:02.151Z" agent="5.0 (Windows)" etag="xOlRhvApJR84jZyvo0Wp" version="20.1.1" type="github">
  <diagram id="Tw6BuNja17fU9OFglPfI" name="Page-1">
    <mxGraphModel dx="1422" dy="762" grid="1" gridSize="10" guides="1" tooltips="1" connect="1" arrows="1" fold="1" page="1" pageScale="1" pageWidth="827" pageHeight="1169" math="0" shadow="0">
      <root>
        <mxCell id="0" />
        <mxCell id="1" parent="0" />
        <mxCell id="RxDXWay-3frHjMu8ycAa-6" value="PC 1" style="sketch=0;pointerEvents=1;shadow=0;dashed=0;html=1;strokeColor=none;fillColor=#505050;labelPosition=center;verticalLabelPosition=bottom;verticalAlign=top;outlineConnect=0;align=center;shape=mxgraph.office.devices.workstation_pc;" vertex="1" parent="1">
          <mxGeometry x="640" y="468" width="53" height="59" as="geometry" />
        </mxCell>
        <mxCell id="RxDXWay-3frHjMu8ycAa-7" value="PC 2" style="sketch=0;pointerEvents=1;shadow=0;dashed=0;html=1;strokeColor=none;fillColor=#505050;labelPosition=center;verticalLabelPosition=bottom;verticalAlign=top;outlineConnect=0;align=center;shape=mxgraph.office.devices.workstation_pc;" vertex="1" parent="1">
          <mxGeometry x="715" y="468" width="53" height="59" as="geometry" />
        </mxCell>
        <mxCell id="RxDXWay-3frHjMu8ycAa-8" value="Gateway" style="sketch=0;pointerEvents=1;shadow=0;dashed=0;html=1;strokeColor=none;fillColor=#505050;labelPosition=center;verticalLabelPosition=bottom;verticalAlign=top;outlineConnect=0;align=center;shape=mxgraph.office.devices.router;" vertex="1" parent="1">
          <mxGeometry x="285.36" y="342" width="74.64" height="76" as="geometry" />
        </mxCell>
        <mxCell id="RxDXWay-3frHjMu8ycAa-9" value="TV" style="sketch=0;pointerEvents=1;shadow=0;dashed=0;html=1;strokeColor=none;fillColor=#505050;labelPosition=center;verticalLabelPosition=bottom;verticalAlign=top;outlineConnect=0;align=center;shape=mxgraph.office.devices.tv;" vertex="1" parent="1">
          <mxGeometry x="538" y="180" width="59" height="45" as="geometry" />
        </mxCell>
        <mxCell id="RxDXWay-3frHjMu8ycAa-13" value="&lt;div&gt;Mobile 1&lt;/div&gt;" style="sketch=0;pointerEvents=1;shadow=0;dashed=0;html=1;strokeColor=none;fillColor=#505050;labelPosition=center;verticalLabelPosition=bottom;verticalAlign=top;outlineConnect=0;align=center;shape=mxgraph.office.devices.cell_phone_android_standalone;" vertex="1" parent="1">
          <mxGeometry x="280" y="180" width="24" height="44" as="geometry" />
        </mxCell>
        <mxCell id="RxDXWay-3frHjMu8ycAa-14" value="Mobile 2" style="sketch=0;pointerEvents=1;shadow=0;dashed=0;html=1;strokeColor=none;fillColor=#505050;labelPosition=center;verticalLabelPosition=bottom;verticalAlign=top;outlineConnect=0;align=center;shape=mxgraph.office.devices.cell_phone_android_standalone;" vertex="1" parent="1">
          <mxGeometry x="360" y="180" width="24" height="44" as="geometry" />
        </mxCell>
        <mxCell id="RxDXWay-3frHjMu8ycAa-15" value="Tablet" style="sketch=0;pointerEvents=1;shadow=0;dashed=0;html=1;strokeColor=none;fillColor=#505050;labelPosition=center;verticalLabelPosition=bottom;verticalAlign=top;outlineConnect=0;align=center;shape=mxgraph.office.devices.tablet_android;" vertex="1" parent="1">
          <mxGeometry x="420" y="184" width="56" height="37" as="geometry" />
        </mxCell>
        <mxCell id="RxDXWay-3frHjMu8ycAa-16" value="switch mode" style="sketch=0;pointerEvents=1;shadow=0;dashed=0;html=1;strokeColor=none;fillColor=#505050;labelPosition=center;verticalLabelPosition=bottom;verticalAlign=top;outlineConnect=0;align=center;shape=mxgraph.office.devices.router;" vertex="1" parent="1">
          <mxGeometry x="540" y="340" width="55" height="56" as="geometry" />
        </mxCell>
        <mxCell id="RxDXWay-3frHjMu8ycAa-17" value="MFP" style="sketch=0;pointerEvents=1;shadow=0;dashed=0;html=1;strokeColor=none;fillColor=#505050;labelPosition=center;verticalLabelPosition=bottom;verticalAlign=top;outlineConnect=0;align=center;shape=mxgraph.office.devices.printer;" vertex="1" parent="1">
          <mxGeometry x="560" y="480" width="56" height="47" as="geometry" />
        </mxCell>
        <mxCell id="RxDXWay-3frHjMu8ycAa-18" value="AP 2.4" style="points=[];aspect=fixed;html=1;align=center;shadow=0;dashed=0;image;image=img/lib/allied_telesis/wireless/Access_Point_Indoor.svg;" vertex="1" parent="1">
          <mxGeometry x="678.4" y="290" width="36.6" height="54.6" as="geometry" />
        </mxCell>
        <mxCell id="RxDXWay-3frHjMu8ycAa-23" value="INTERNET" style="ellipse;shape=cloud;whiteSpace=wrap;html=1;" vertex="1" parent="1">
          <mxGeometry x="20" y="320" width="180" height="120" as="geometry" />
        </mxCell>
        <mxCell id="RxDXWay-3frHjMu8ycAa-29" value="" style="endArrow=none;html=1;rounded=0;exitX=0.875;exitY=0.5;exitDx=0;exitDy=0;exitPerimeter=0;" edge="1" parent="1" source="RxDXWay-3frHjMu8ycAa-23" target="RxDXWay-3frHjMu8ycAa-8">
          <mxGeometry width="50" height="50" relative="1" as="geometry">
            <mxPoint x="390" y="380" as="sourcePoint" />
            <mxPoint x="440" y="330" as="targetPoint" />
          </mxGeometry>
        </mxCell>
        <mxCell id="RxDXWay-3frHjMu8ycAa-30" value="" style="endArrow=none;html=1;rounded=0;" edge="1" parent="1" source="RxDXWay-3frHjMu8ycAa-17" target="RxDXWay-3frHjMu8ycAa-16">
          <mxGeometry width="50" height="50" relative="1" as="geometry">
            <mxPoint x="550" y="470" as="sourcePoint" />
            <mxPoint x="580" y="400" as="targetPoint" />
          </mxGeometry>
        </mxCell>
        <mxCell id="RxDXWay-3frHjMu8ycAa-31" value="" style="endArrow=none;html=1;rounded=0;" edge="1" parent="1" source="RxDXWay-3frHjMu8ycAa-6" target="RxDXWay-3frHjMu8ycAa-16">
          <mxGeometry width="50" height="50" relative="1" as="geometry">
            <mxPoint x="616" y="430" as="sourcePoint" />
            <mxPoint x="666" y="380" as="targetPoint" />
          </mxGeometry>
        </mxCell>
        <mxCell id="RxDXWay-3frHjMu8ycAa-32" value="" style="endArrow=none;html=1;rounded=0;" edge="1" parent="1" source="RxDXWay-3frHjMu8ycAa-7" target="RxDXWay-3frHjMu8ycAa-16">
          <mxGeometry width="50" height="50" relative="1" as="geometry">
            <mxPoint x="665" y="380" as="sourcePoint" />
            <mxPoint x="715" y="330" as="targetPoint" />
          </mxGeometry>
        </mxCell>
        <mxCell id="RxDXWay-3frHjMu8ycAa-33" value="" style="endArrow=none;html=1;rounded=0;" edge="1" parent="1" source="RxDXWay-3frHjMu8ycAa-16" target="RxDXWay-3frHjMu8ycAa-18">
          <mxGeometry width="50" height="50" relative="1" as="geometry">
            <mxPoint x="450" y="330" as="sourcePoint" />
            <mxPoint x="500" y="280" as="targetPoint" />
          </mxGeometry>
        </mxCell>
        <mxCell id="RxDXWay-3frHjMu8ycAa-34" value="" style="html=1;outlineConnect=0;fillColor=#CCCCCC;strokeColor=#6881B3;gradientColor=none;gradientDirection=north;strokeWidth=2;shape=mxgraph.networks.comm_link_edge;html=1;rounded=0;" edge="1" parent="1" target="RxDXWay-3frHjMu8ycAa-13">
          <mxGeometry width="100" height="100" relative="1" as="geometry">
            <mxPoint x="310" y="360" as="sourcePoint" />
            <mxPoint x="410" y="260" as="targetPoint" />
          </mxGeometry>
        </mxCell>
        <mxCell id="RxDXWay-3frHjMu8ycAa-35" value="" style="html=1;outlineConnect=0;fillColor=#CCCCCC;strokeColor=#6881B3;gradientColor=none;gradientDirection=north;strokeWidth=2;shape=mxgraph.networks.comm_link_edge;html=1;rounded=0;" edge="1" parent="1" target="RxDXWay-3frHjMu8ycAa-14">
          <mxGeometry width="100" height="100" relative="1" as="geometry">
            <mxPoint x="320" y="370" as="sourcePoint" />
            <mxPoint x="304.50632911392404" y="234" as="targetPoint" />
          </mxGeometry>
        </mxCell>
        <mxCell id="RxDXWay-3frHjMu8ycAa-36" value="" style="html=1;outlineConnect=0;fillColor=#CCCCCC;strokeColor=#6881B3;gradientColor=none;gradientDirection=north;strokeWidth=2;shape=mxgraph.networks.comm_link_edge;html=1;rounded=0;" edge="1" parent="1" target="RxDXWay-3frHjMu8ycAa-15">
          <mxGeometry width="100" height="100" relative="1" as="geometry">
            <mxPoint x="340" y="360" as="sourcePoint" />
            <mxPoint x="375.19047619047615" y="234" as="targetPoint" />
          </mxGeometry>
        </mxCell>
        <mxCell id="RxDXWay-3frHjMu8ycAa-37" value="" style="html=1;outlineConnect=0;fillColor=#CCCCCC;strokeColor=#6881B3;gradientColor=none;gradientDirection=north;strokeWidth=2;shape=mxgraph.networks.comm_link_edge;html=1;rounded=0;" edge="1" parent="1" target="RxDXWay-3frHjMu8ycAa-9">
          <mxGeometry width="100" height="100" relative="1" as="geometry">
            <mxPoint x="370" y="380" as="sourcePoint" />
            <mxPoint x="385.19047619047615" y="244" as="targetPoint" />
          </mxGeometry>
        </mxCell>
        <mxCell id="RxDXWay-3frHjMu8ycAa-38" value="" style="html=1;outlineConnect=0;fillColor=#CCCCCC;strokeColor=#6881B3;gradientColor=none;gradientDirection=north;strokeWidth=2;shape=mxgraph.networks.comm_link_edge;html=1;rounded=0;" edge="1" parent="1" target="RxDXWay-3frHjMu8ycAa-16">
          <mxGeometry width="100" height="100" relative="1" as="geometry">
            <mxPoint x="370" y="400" as="sourcePoint" />
            <mxPoint x="395.19047619047615" y="254" as="targetPoint" />
          </mxGeometry>
        </mxCell>
      </root>
    </mxGraphModel>
  </diagram>
</mxfile>
